<svg width="26" height="31" viewBox="0 0 26 31" fill="none" xmlns="http://www.w3.org/2000/svg" class="flex-none mt1 mr1-s w2"><g clip-path="url(#clip0)"><path d="M2.26221 9.75237C6.18629 7.19351 8.28262 4.7054 13.1777 0.955078C17.4405 4.39076 20.389 6.64756 24.0933 9.75268" stroke="#333333" stroke-width="1.44212" stroke-miterlimit="10" stroke-linecap="round" stroke-linejoin="round"></path> <path d="M5.2386 11.471C4.45036 16.6268 4.81537 22.3114 5.2386 22.4827C5.66183 22.6539 21.1158 23.6617 21.1158 22.4827C21.1158 21.3036 21.2998 14.0588 20.9349 10.9253" stroke="#333333" stroke-width="1.44212" stroke-miterlimit="10" stroke-linecap="round" stroke-linejoin="round"></path></g> <path d="M25.9056 25.7233C25.9056 28.5097 21.8375 30.441 14.8576 30.441C7.87782 30.441 0 28.5097 0 25.7233C0 22.9368 5.78251 21 12.7623 21C19.7422 21 25.9056 21.833 25.9056 25.7233Z" fill="#333333" fill-opacity="0.1"></path> <defs><clipPath id="clip0"><rect x="1.27002" width="23.8157" height="23.4603" fill="white"></rect></clipPath></defs></svg>