<svg width="100" height="30" viewBox="0 0 100 30" version="1.1" xmlns="http://www.w3.org/2000/svg" xmlns:xlink="http://www.w3.org/1999/xlink" class="floom-logo w4 w5-l fill-dark-green"><g id="Navigation-bars" transform="translate(-634.000000, -3575.000000)" fill-rule="nonzero"><g id="Group-14" transform="translate(4.000000, 3538.000000)"><g id="Floom-Logo---1-Copy-7" transform="translate(630.000000, 37.000000)"><path d="M98.7826087,10.7 L96.6086957,10.7 C96.5009297,10.7009811 96.4017069,10.7601472 96.3478261,10.8555556 L89.7282609,21.7555556 L83.0978261,10.8555556 C83.0456444,10.7584365 82.9453429,10.6986271 82.8369565,10.7 L80.6630435,10.7 C80.4949568,10.7 80.3586957,10.8392892 80.3586957,11.0111111 L80.3586957,28.8888889 C80.3645503,29.0563567 80.4991117,29.1889958 80.6630435,29.1888889 L82.6086957,29.1888889 C82.7726274,29.1889958 82.9071888,29.0563567 82.9130435,28.8888889 L82.9130435,15.9666667 L88.5978261,25.0222222 C88.6517069,25.1176305 88.7509297,25.1767967 88.8586957,25.1777778 L90.5543478,25.1777778 C90.6621138,25.1767967 90.7613366,25.1176305 90.8152174,25.0222222 L96.5,15.9666667 L96.5,28.8888889 C96.5058547,29.0563567 96.6404161,29.1889958 96.8043478,29.1888889 L98.7717391,29.1888889 C98.9356709,29.1889958 99.0702323,29.0563567 99.076087,28.8888889 L99.076087,11.0111111 C99.076087,10.8392892 98.9398258,10.7 98.7717391,10.7" id="Shape"></path> <path d="M65.6521739,0.311111111 C60.4545842,0.311199464 56.2383687,4.61295062 56.2284348,9.92603263 C56.2185008,15.2391146 60.4185995,19.5573091 65.6161509,19.5777068 C70.8137023,19.5981045 75.0461124,15.3130034 75.076087,10 C75.0905554,7.43546898 74.1040726,4.97089648 72.3351754,3.15226257 C70.5662783,1.33362867 68.160996,0.311068464 65.6521739,0.311111111 M65.6521739,17.0555556 C63.839956,17.0439689 62.1076409,16.2915174 60.8415909,14.966022 C59.5755408,13.6405266 58.8810613,11.8522372 58.9130435,10 C58.7710528,7.44547039 60.0235676,5.02035768 62.1671882,3.69934167 C64.3108088,2.37832567 66.993539,2.37832567 69.1371596,3.69934167 C71.2807802,5.02035768 72.533295,7.44547039 72.3913043,10 C72.441062,11.8626233 71.7541271,13.6670966 70.485824,15.0054063 C69.217521,16.343716 67.4749667,17.1028328 65.6521739,17.1111111" id="Shape"></path> <path d="M42.4782609,10.3111111 C37.2820899,10.3173259 33.0713172,14.6217896 33.0653803,19.9334313 C33.0594434,25.2450729 37.2605828,29.5593612 42.4567263,29.5777137 C47.6528698,29.5960661 51.8830735,25.3115567 51.9130435,20 C51.9130435,14.6796569 47.6938139,10.3666667 42.4891304,10.3666667 M42.4891304,27.1111111 C40.6653916,27.1027616 38.9217837,26.3439961 37.6517676,25.0060367 C36.3817515,23.6680774 35.6923491,21.8636716 35.7391304,20 C35.5971398,17.4454704 36.8496546,15.0203577 38.9932752,13.6993417 C41.1368958,12.3783257 43.819626,12.3783257 45.9632466,13.6993417 C48.1068672,15.0203577 49.359382,17.4454704 49.2173913,20 C49.2671489,21.8626233 48.580214,23.6670966 47.311911,25.0054063 C46.043608,26.343716 44.3010536,27.1028328 42.4782609,27.1111111" id="Shape"></path> <path d="M29.2717391,26.7333333 L20.8804348,26.7333333 L20.8804348,11.0111111 C20.8804895,10.9295831 20.848082,10.8515435 20.7906703,10.794952 C20.7332586,10.7383605 20.6557879,10.7080915 20.576087,10.7111111 L18.6086957,10.7111111 C18.4447639,10.7110042 18.3102025,10.8436433 18.3043478,11.0111111 L18.3043478,28.8888889 C18.3043478,29.0607108 18.440609,29.2 18.6086957,29.2 L29.2717391,29.2 C29.4398258,29.2 29.576087,29.0607108 29.576087,28.8888889 L29.576087,27.0333333 C29.576087,26.8615114 29.4398258,26.7222222 29.2717391,26.7222222" id="Shape"></path> <path d="M12.0652174,10.7 L1.19565217,10.7 C1.03182499,10.7059848 0.902069333,10.8435364 0.902173913,11.0111111 L0.902173913,28.8888889 C0.902173913,29.0545743 1.03356861,29.1888889 1.19565217,29.1888889 L3.16304348,29.1888889 C3.24457164,29.1950795 3.32493087,29.1662272 3.38476524,29.1092813 C3.44459961,29.0523355 3.47848549,28.9724581 3.47826087,28.8888889 L3.47826087,21.1111111 L10.576087,21.1111111 C10.7441736,21.1111111 10.8804348,20.9718219 10.8804348,20.8 L10.8804348,18.9666667 C10.8804348,18.7948447 10.7441736,18.6555556 10.576087,18.6555556 L3.47826087,18.6555556 L3.47826087,13.1666667 L12.0652174,13.1666667 C12.2333041,13.1666667 12.3695652,13.0273775 12.3695652,12.8555556 L12.3695652,11.0111111 C12.3695652,10.8392892 12.2333041,10.7 12.0652174,10.7" id="Shape"></path></g></g></g></svg>