<svg width="27" height="35" viewBox="0 0 27 35" fill="none" xmlns="http://www.w3.org/2000/svg" class="flex-none mr1 mr2-s mt1"><path d="M26.4676 29.5387C26.4676 32.3251 22.3995 34.2564 15.4197 34.2564C8.43983 34.2564 0.562012 32.3251 0.562012 29.5387C0.562012 26.7522 6.34452 24.8154 13.3243 24.8154C20.3042 24.8154 26.4676 25.6485 26.4676 29.5387Z" fill="#333333" fill-opacity="0.1"></path> <path d="M17.619 25.9417C17.1424 26.5702 16.2128 26.6128 15.6807 26.0307L9.1851 18.9236L7.96563 12.5305L25.7767 12.1824L23.0933 18.7227L17.619 25.9417Z" fill="white"></path> <path d="M26.4489 10.7901C26.4489 16.7494 21.7847 21.5803 16.0311 21.5803C10.2775 21.5803 5.61328 16.7494 5.61328 10.7901C5.61328 4.83091 10.2775 0 16.0311 0C21.7847 0 26.4489 4.83091 26.4489 10.7901Z" fill="white"></path> <path d="M7.36912 20.1762C7.34811 20.1527 7.32546 20.1308 7.30133 20.1106C5.28268 18.4179 4.00099 15.8793 4.00099 13.0407C4.00099 7.94763 8.12975 3.81886 13.2228 3.81886C18.3159 3.81886 22.4447 7.94763 22.4447 13.0407C22.4447 15.8793 21.163 18.4179 19.1444 20.1106C19.1164 20.134 19.0904 20.1597 19.0667 20.1875L14.3503 25.7002C13.8242 26.3151 12.8769 26.3258 12.3371 25.723L7.36912 20.1762Z" stroke="#333333" stroke-width="1.32424" stroke-linecap="round" stroke-linejoin="round"></path> <circle cx="13.1897" cy="11.365" r="3.12829" stroke="#333333" stroke-width="1.32"></circle></svg>